# xmcd
#
# Track frame offsets:
#	150
#	12072
#	26887
#	40442
#	59262
#	74492
#	87460
#	101730
#	116210
#	130997
#	142792
#	157207
#
# Disc length: 2270 seconds
#
# Revision: 1
# Processed by: cddbd v1.5.2PL0 Copyright (c) Steve Scherf et al.
# Submitted via: audiograbber 1.83.01
#
DISCID=af08dc0c
DTITLE=Country Company - Brand New Day Country Company
DYEAR=1997
DGENRE=Country
TTITLE0=Bad Day For The Blues
TTITLE1=Dance Me Outside
TTITLE2=Standing Tall
TTITLE3=I Don´t Care If You Love Anymore
TTITLE4=Yesterday
TTITLE5=Don´t Stop In My World
TTITLE6=Baby Don´t You Know
TTITLE7=If You´d Like Some Lovin
TTITLE8=Part Of Me, Will Always Be In Love With You
TTITLE9=A Little Love Is A Dangerous Thing
TTITLE10=Walls Can Fall
TTITLE11=No More Lonely
EXTD=
EXTT0=
EXTT1=
EXTT2=
EXTT3=
EXTT4=
EXTT5=
EXTT6=
EXTT7=
EXTT8=
EXTT9=
EXTT10=
EXTT11=
PLAYORDER=
